<?xml version="1.0" standalone="no"?>
<!DOCTYPE svg PUBLIC "-//W3C//DTD SVG 20010904//EN"
 "http://www.w3.org/TR/2001/REC-SVG-20010904/DTD/svg10.dtd">
<svg version="1.0" xmlns="http://www.w3.org/2000/svg"
 width="128.000000pt" height="128.000000pt" viewBox="0 0 128.000000 128.000000"
 preserveAspectRatio="xMidYMid meet">
<metadata>
Created by potrace 1.12, written by Peter Selinger 2001-2015
</metadata>
<g transform="translate(0.000000,128.000000) scale(0.100000,-0.100000)"
fill="#000000" stroke="none">
<path d="M388 835 c-22 -44 -37 -64 -46 -60 -96 37 -225 -10 -278 -101 -53
-90 -38 -207 34 -276 67 -64 131 -84 213 -67 105 23 179 113 179 221 0 69 -15
111 -60 161 -21 24 -30 43 -26 54 5 13 31 -7 120 -96 95 -95 115 -120 119
-150 5 -45 -23 -81 -65 -81 -18 0 -28 -5 -28 -15 0 -28 63 -19 93 13 21 22 34
27 57 24 57 -8 100 65 66 114 -12 17 -11 31 12 112 15 50 30 92 33 92 3 0 15
-13 26 -29 l22 -28 -24 -34 c-123 -175 45 -414 248 -355 104 31 167 113 167
219 0 125 -77 213 -201 232 -32 5 -60 1 -100 -12 l-56 -19 -32 49 c-23 35 -31
56 -27 73 9 35 -31 34 -44 -1 l-10 -25 -170 0 -170 0 6 25 c5 19 2 25 -10 25
-10 0 -29 -25 -48 -65z m382 -32 c0 -5 -13 -51 -29 -103 -39 -132 -45 -132
-181 5 l-105 105 158 0 c86 0 157 -3 157 -7z m-448 -80 c4 -2 -5 -28 -19 -58
-21 -42 -33 -55 -49 -55 -27 0 -46 -23 -46 -55 0 -34 19 -55 50 -55 34 0 62
27 62 59 0 31 45 131 59 131 6 0 22 -20 37 -45 22 -39 26 -55 22 -100 -17
-201 -296 -228 -349 -33 -18 70 9 144 72 191 43 31 125 42 161 20z m743 6 c55
-16 92 -44 115 -89 61 -119 -23 -260 -155 -260 -145 0 -228 147 -153 271 l20
33 39 -42 c30 -31 39 -49 39 -76 0 -59 51 -86 92 -49 38 34 15 93 -36 93 -28
0 -38 7 -60 40 -36 55 -36 62 4 76 44 16 47 16 95 3z"/>
</g>
</svg>
