<?xml version="1.0" standalone="no"?>
<!DOCTYPE svg PUBLIC "-//W3C//DTD SVG 20010904//EN"
 "http://www.w3.org/TR/2001/REC-SVG-20010904/DTD/svg10.dtd">
<svg version="1.0" xmlns="http://www.w3.org/2000/svg"
 width="200.000000pt" height="200.000000pt" viewBox="0 0 200.000000 200.000000"
 preserveAspectRatio="xMidYMid meet">
<metadata>
Created by potrace 1.12, written by Peter Selinger 2001-2015
</metadata>
<g transform="translate(0.000000,200.000000) scale(0.100000,-0.100000)"
fill="#000000" stroke="none">
<path d="M1075 1431 c-22 -10 -56 -35 -74 -55 -19 -20 -41 -36 -48 -36 -25 0
-88 -38 -122 -74 -19 -20 -41 -36 -48 -36 -27 0 -90 -39 -121 -74 -17 -20 -38
-36 -47 -36 -28 0 -91 -38 -123 -74 -17 -20 -38 -36 -47 -36 -29 0 -94 -40
-122 -75 -15 -19 -36 -35 -46 -35 -26 0 -88 -34 -113 -62 -54 -59 -59 -81 -59
-268 l0 -175 25 0 25 0 5 170 c6 189 14 220 73 255 l32 20 5 -168 5 -167 25 0
25 0 5 170 5 170 52 3 52 3 3 -118 3 -118 25 0 25 0 3 118 3 117 54 0 55 0 0
-58 c0 -65 13 -87 42 -71 14 8 18 22 18 69 l0 60 55 0 c30 0 55 -4 55 -9 0
-18 33 -21 51 -5 15 13 23 14 53 4 41 -13 81 -43 99 -73 8 -14 14 -84 17 -197
l5 -175 25 0 25 0 3 165 c2 133 -1 173 -13 207 -20 51 -93 119 -138 128 -61
12 -67 16 -67 41 0 22 4 24 45 24 25 0 57 -7 71 -16 23 -15 26 -15 42 0 31 27
105 -2 144 -56 21 -31 23 -45 28 -208 l5 -175 25 0 25 0 3 155 c2 95 -2 171
-9 196 -21 78 -90 140 -169 153 -29 5 -36 11 -38 35 l-4 28 109 -3 c92 -4 114
-8 146 -28 64 -39 71 -64 77 -256 l5 -170 25 0 25 0 0 175 c0 152 -2 180 -19
210 -52 97 -99 120 -251 120 l-115 0 0 31 0 31 193 -4 c179 -3 194 -4 229 -26
66 -41 78 -83 78 -269 0 -132 3 -162 15 -167 8 -3 22 2 31 11 14 14 15 39 12
182 -3 161 -4 167 -31 214 -15 26 -47 60 -69 75 -41 27 -42 27 -250 30 l-208
3 0 25 0 24 279 0 c272 0 279 0 311 -22 71 -49 75 -61 78 -253 3 -137 7 -175
18 -179 7 -3 20 2 29 10 12 12 15 42 15 143 0 206 -22 274 -107 331 -36 25
-38 25 -312 30 l-276 5 35 22 c34 23 41 23 346 23 306 0 312 0 344 -23 66 -44
75 -73 78 -257 2 -91 7 -169 11 -173 4 -4 15 -5 24 -1 15 5 17 27 17 180 0
192 -7 220 -67 275 -62 59 -65 59 -405 59 -284 0 -317 -2 -353 -19z"/>
</g>
</svg>
