<?xml version="1.0" standalone="no"?>
<!DOCTYPE svg PUBLIC "-//W3C//DTD SVG 20010904//EN"
 "http://www.w3.org/TR/2001/REC-SVG-20010904/DTD/svg10.dtd">
<svg version="1.0" xmlns="http://www.w3.org/2000/svg"
 width="128.000000pt" height="128.000000pt" viewBox="0 0 128.000000 128.000000"
 preserveAspectRatio="xMidYMid meet">
<metadata>
Created by potrace 1.12, written by Peter Selinger 2001-2015
</metadata>
<g transform="translate(0.000000,128.000000) scale(0.100000,-0.100000)"
fill="#000000" stroke="none">
<path d="M568 902 c-43 -72 -54 -98 -43 -100 21 -5 19 -15 -16 -77 -25 -44
-28 -55 -15 -55 23 0 21 -7 -23 -80 -25 -40 -35 -66 -28 -68 7 -2 18 -5 24 -7
9 -3 1 -23 -22 -62 -19 -32 -35 -61 -35 -65 0 -5 36 -8 80 -8 l80 0 0 -50 0
-50 59 0 60 0 3 47 3 48 78 3 c42 2 77 6 77 10 0 4 -14 30 -30 57 -35 59 -37
72 -11 77 18 3 16 9 -19 68 -33 56 -37 67 -24 76 13 10 11 19 -16 63 -34 59
-37 71 -14 71 9 0 14 4 12 8 -9 22 -113 192 -118 192 -3 0 -31 -44 -62 -98z"/>
<path d="M320 749 c-31 -53 -39 -73 -30 -79 10 -6 7 -17 -11 -46 -16 -27 -19
-39 -11 -42 9 -3 3 -21 -18 -58 -23 -41 -27 -54 -15 -54 19 0 19 -3 -5 -50
-11 -22 -20 -42 -20 -45 0 -3 25 -5 55 -5 l55 0 0 -35 c0 -35 0 -35 45 -35 45
0 45 0 45 34 0 19 -6 36 -12 39 -9 3 -3 23 20 66 24 45 29 61 18 61 -25 0 -24
23 1 68 24 41 24 43 8 68 -13 21 -14 28 -4 34 9 6 2 26 -30 79 -23 39 -43 71
-45 71 -2 0 -23 -32 -46 -71z"/>
<path d="M845 752 c-51 -85 -50 -82 -31 -82 13 0 13 -3 -1 -28 -15 -27 -15
-30 11 -75 27 -46 28 -67 1 -67 -11 0 -5 -17 18 -60 30 -56 31 -61 15 -71 -11
-6 -18 -22 -18 -39 0 -29 2 -30 44 -30 43 0 45 1 48 33 3 32 4 32 61 35 31 2
57 4 57 6 0 2 -12 24 -26 50 -21 38 -23 46 -10 46 21 0 21 4 -11 58 -19 32
-23 47 -15 50 9 3 5 17 -13 47 -20 36 -22 44 -10 47 12 2 6 17 -24 67 -22 35
-43 67 -48 72 -4 4 -26 -22 -48 -59z"/>
</g>
</svg>
